# xmcd
#
# Track frame offsets:
#	150
#	17275
#	29277
#	40264
#	57300
#	73307
#	90040
#	100235
#	112490
#	124300
#	135565
#	150612
#
# Disc length: 2203 seconds
#
# Revision: 0
# Processed by: cddbd v1.4PL0 Copyright (c) Steve Scherf et al.
# Submitted via: EasyCDDAExtractor 4.5.0.2
#
DISCID=9d08990c
DTITLE=Luis Miguel - Lo Mejor De Los Mejores Vol.2
DYEAR=1900
DGENRE=blues
TTITLE0=Los Muchachos De Hoy
TTITLE1=Todo El Amor Del Mundo
TTITLE2=Un Rock And Roll Sonó
TTITLE3=Por Ti
TTITLE4=Lili
TTITLE5=Fiebre De Amor
TTITLE6=Me Muero Por Ti
TTITLE7=Tu No Tienes Corazón
TTITLE8=La Juventud
TTITLE9=Ya Nunca Más
TTITLE10=Rey De Corazones
TTITLE11=Este Amor
EXTD=
EXTT0=
EXTT1=
EXTT2=
EXTT3=
EXTT4=
EXTT5=
EXTT6=
EXTT7=
EXTT8=
EXTT9=
EXTT10=
EXTT11=
PLAYORDER=
